<svg xmlns="http://www.w3.org/2000/svg" viewBox="0 0 528.33 168.48"><defs><style>.cls-1{fill:#fff}</style></defs><g id="Layer_2" data-name="Layer 2"><g id="Layer_1-2" data-name="Layer 1"><path class="cls-1" d="M118.25 50.28q-7 25.63-25.14 25.63h-34a33.46 33.46 0 0 0 0 66.93h34q18.1 0 25.14 25.63H59.1c-30.94 0-59.1-28.15-59.1-59.1s28.15-59.1 59.1-59.1zM497.54 168.48a27.3 27.3 0 0 0 12.61-3.15 30.34 30.34 0 0 0 5.43-3.66 31.87 31.87 0 0 0 4.55-4.71 40.09 40.09 0 0 0 3.58-5.49 32.08 32.08 0 0 0 2.87-7 41.28 41.28 0 0 0 0-23.79 32.1 32.1 0 0 0-2.87-7 40 40 0 0 0-3.58-5.49 31.88 31.88 0 0 0-4.55-4.71 30.32 30.32 0 0 0-5.43-3.66 27.29 27.29 0 0 0-12.61-3.15h-51.21a10.06 10.06 0 0 1-9.68-9.68v-1.4a10.05 10.05 0 0 1 9.68-9.68h56.86q18.1 0 25.14-25.63h-87.46a27.29 27.29 0 0 0-12.61 3.16 30.29 30.29 0 0 0-5.43 3.66 31.83 31.83 0 0 0-4.55 4.71 40 40 0 0 0-3.58 5.49 32.13 32.13 0 0 0-2.87 7 45.16 45.16 0 0 0-1.75 11.89 45.16 45.16 0 0 0 1.75 11.89 32.12 32.12 0 0 0 2.87 7 40 40 0 0 0 3.58 5.49 31.87 31.87 0 0 0 4.55 4.71 30.34 30.34 0 0 0 5.43 3.66 27.3 27.3 0 0 0 12.61 3.15h51.21a10.06 10.06 0 0 1 9.68 9.68v1.29a10.06 10.06 0 0 1-9.68 9.68h-56.86q-18.1 0-25.14 25.63zM349.94 142.85q18.1 0 25.14 25.63h-41.65a59.09 59.09 0 1 1 59.1-59.1V151q-25.63-7-25.63-25.14v-16.48a33.93 33.93 0 0 0-9.81-23.66 33.43 33.43 0 0 0-47.31 0 33.93 33.93 0 0 0-9.78 23.66 33.47 33.47 0 0 0 33.46 33.46zM165.16 25.14v35.53a59.09 59.09 0 0 1 74 5.71 58.94 58.94 0 0 1 10 12.45 59.54 59.54 0 0 1 8.51 30.55v59.1q-25.63-7-25.63-25.14v-34a33.93 33.93 0 0 0-9.81-23.66 33.43 33.43 0 0 0-47.3 0 33.93 33.93 0 0 0-9.81 23.66v34q0 18.1-25.63 25.14V0q25.67 7 25.67 25.14z"/></g></g></svg>